<svg xmlns="http://www.w3.org/2000/svg" width="801.091" height="741.8" viewBox="0 0 801.091 741.8">
  <path id="white_line_face-icon" d="M398.2,22a163.912,163.912,0,0,1,29.6,2.8,126.683,126.683,0,0,1,101.1,99.4c2.3,11.6,1.1,24.4-.2,38l-.1,1.1c-.7,8.1-1.8,16.1-2.9,24.6l-.5,3.9a27.45,27.45,0,0,0,15.7,28.9c5.8,2.8,6.4,6.1,6.6,8.9,1.5,28.2-5,49.3-20.4,66.1-13.9,8.2-16.7,22.6-17.9,29-3.7,19.2-9.1,33.6-17,45.1q-3.3,4.8-7.2,9.9c-2,2.7-4.1,5.5-6.1,8.4-4.2,6-6.3,12.2-6.1,18.4l.2,5c.5,14.1,1,28.7,2,43.2,1.6,22.3,14.6,39.4,35.9,46.9,27.5,9.6,50.4,17.3,72.2,24.2,14.5,4.6,29.2,8.9,43.5,13.1,13,3.8,26.3,7.8,39.4,11.8,40.9,12.8,70.2,40,89.8,83.2,11,24.1,17.9,50.9,21.7,83.9-40.7.6-84,1.1-127,1.2h-229v-.5H39.4c-5.6,0-11.2-.2-16.5-.5,2.4-25.4,7-47.5,14.1-67.3,9.3-25.9,22.8-47.8,41.1-66.8,15.8-16.3,36.5-27.8,67.4-37.2l62.6-19L277,506.8c2.1-.6,4-1.4,5.8-2l1.4-.5c25.8-9.2,40.6-28.8,41.6-55l.4-9.9c.4-10.6.9-21.6,1.1-32.5.2-9.5-4.4-16.8-7.2-20.3-9.9-12.6-19.8-26.5-24.3-42.2-1-3.6-1.9-7.4-2.9-11.4-1.2-5-2.4-10.2-4-15.6a42.2,42.2,0,0,0-12.4-18.7c-6.7-5.9-10.9-11-13.5-16.3-10.3-21.2-13.3-38.3-9.6-55.4.4-1.9,1.1-3.9,5.4-6.2,11.5-6.3,17-17,15.4-30.1-.4-3.7-.9-7.4-1.4-10.9-2.2-17.6-4.4-34.2-2.4-50a114.771,114.771,0,0,1,15.3-45.5c8-13.3,19.1-25.3,33-35.7,24-17.9,50-26.6,79.5-26.6m0-22C365,0,334,9.7,305.6,30.9c-32.2,24-52,56-57,96.2-2.7,22.1,1.2,44.2,3.8,66.2.5,4.3-.6,6.2-4.2,8.2-8.3,4.6-14.2,11.1-16.3,20.9-5.3,24.7.6,47.6,11.4,69.6,4.4,9.1,11.1,16.5,18.7,23.2a20.451,20.451,0,0,1,5.9,8.6c2.7,8.8,4.3,17.8,6.8,26.6,5.4,18.8,16.2,34.6,28.1,49.7a10.958,10.958,0,0,1,2.5,6.2c-.3,14-.9,28-1.4,42-.7,18.1-10.4,29.2-27,35.1-2,.7-4.1,1.5-6.1,2.1L139.3,525.4c-28.7,8.7-55.6,21-76.8,43C19.1,613.3,3.7,669.1,0,729.3c-.4,6.2,2.7,9.3,8.9,9.8,10.1.7,20.3,1.2,30.5,1.2H399.5v.5H546.9c34.5,0,69.1,0,103.6-.1,44.5-.1,89-.7,133.5-1.3,14.6-.2,16.9-3.2,15.9-17.9V721c-3.4-33.3-10.2-65.8-24.2-96.5-21-46.3-54-79.7-103.3-95.1-27.5-8.6-55.3-16.3-82.8-25q-36-11.4-71.5-24c-12.8-4.5-20.3-14-21.2-27.6-1.1-15.8-1.6-31.6-2.1-47.4-.1-1.6,1-3.5,2-4.9,4.4-6.2,9.2-12.2,13.5-18.6,11-16.1,16.7-34.3,20.4-53.3,1.2-6.1,2.5-12.1,9-15a10.619,10.619,0,0,0,2.9-2.7c21.8-23.4,28.3-51.9,26.7-82.7-.7-12.5-7.4-21.9-18.9-27.5-2.8-1.4-3.9-3.2-3.5-6.4,1.2-9.8,2.6-19.5,3.5-29.3,1.4-15.1,2.9-30.2-.1-45.3C538.8,60.7,490.9,13.7,431.5,3A194.51,194.51,0,0,0,398.2,0Z" transform="translate(0.535 0.5)" fill="rgba(22,64,203,0.8)" stroke="#fff" stroke-miterlimit="10" stroke-width="1"/>
</svg>
