<?xml version="1.0" encoding="utf-8"?>
<!-- Generator: Adobe Illustrator 26.0.1, SVG Export Plug-In . SVG Version: 6.00 Build 0)  -->
<svg version="1.1" id="ae85f135-4936-4a93-b6ad-ee696a8ab0c4"
	 xmlns="http://www.w3.org/2000/svg" xmlns:xlink="http://www.w3.org/1999/xlink" x="0px" y="0px" viewBox="0 0 800.2 741"
	 style="enable-background:new 0 0 800.2 741;" xml:space="preserve">
<style type="text/css">
	.st1{fill:#FFF;stroke:#FFFFFF;stroke-miterlimit:10;}
</style>

<path class="st1" d="M398.2,22c9.9,0,19.8,1,29.6,2.8c50.8,9.4,90.8,48.7,101.1,99.4c2.3,11.6,1.1,24.4-0.2,38l-0.1,1.1
	c-0.7,8.1-1.8,16.1-2.9,24.6l-0.5,3.9c-1.7,12.1,4.6,23.8,15.7,28.9c5.8,2.8,6.4,6.1,6.6,8.9c1.5,28.2-5,49.3-20.4,66.1
	c-13.9,8.2-16.7,22.6-17.9,29c-3.7,19.2-9.1,33.6-17,45.1c-2.2,3.2-4.6,6.5-7.2,9.9c-2,2.7-4.1,5.5-6.1,8.4
	c-4.2,6-6.3,12.2-6.1,18.4l0.2,5c0.5,14.1,1,28.7,2,43.2c1.6,22.3,14.6,39.4,35.9,46.9c27.5,9.6,50.4,17.3,72.2,24.2
	c14.5,4.6,29.2,8.9,43.5,13.1c13,3.8,26.3,7.8,39.4,11.8c40.9,12.8,70.2,40,89.8,83.2c11,24.1,17.9,50.9,21.7,83.9
	c-40.7,0.6-84,1.1-127,1.2C620,719,587.1,719,546.9,719h-73.7h-51.7v-0.5H249.3c-62,0-135.5,0-209.9,0c-5.6,0-11.2-0.2-16.5-0.5
	c2.4-25.4,7-47.5,14.1-67.3c9.3-25.9,22.8-47.8,41.1-66.8c15.8-16.3,36.5-27.8,67.4-37.2l62.6-19l68.9-20.9c2.1-0.6,4-1.4,5.8-2
	l1.4-0.5c25.8-9.2,40.6-28.8,41.6-55l0.4-9.9c0.4-10.6,0.9-21.6,1.1-32.5c0.2-9.5-4.4-16.8-7.2-20.3c-9.9-12.6-19.8-26.5-24.3-42.2
	c-1-3.6-1.9-7.4-2.9-11.4c-1.2-5-2.4-10.2-4-15.6c-2.4-7.2-6.6-13.7-12.4-18.7c-6.7-5.9-10.9-11-13.5-16.3
	c-10.3-21.2-13.3-38.3-9.6-55.4c0.4-1.9,1.1-3.9,5.4-6.2c11.5-6.3,17-17,15.4-30.1c-0.4-3.7-0.9-7.4-1.4-10.9
	c-2.2-17.6-4.4-34.2-2.4-50c1.8-16.1,7.1-31.6,15.3-45.5c8-13.3,19.1-25.3,33-35.7C342.7,30.7,368.7,22,398.2,22 M398.2,0
	C365,0,334,9.7,305.6,30.9c-32.2,24-52,56-57,96.2c-2.7,22.1,1.2,44.2,3.8,66.2c0.5,4.3-0.6,6.2-4.2,8.2
	c-8.3,4.6-14.2,11.1-16.3,20.9c-5.3,24.7,0.6,47.6,11.4,69.6c4.4,9.1,11.1,16.5,18.7,23.2c2.7,2.3,4.7,5.3,5.9,8.6
	c2.7,8.8,4.3,17.8,6.8,26.6c5.4,18.8,16.2,34.6,28.1,49.7c1.5,1.8,2.3,3.9,2.5,6.2c-0.3,14-0.9,28-1.4,42
	c-0.7,18.1-10.4,29.2-27,35.1c-2,0.7-4.1,1.5-6.1,2.1l-131.5,39.9c-28.7,8.7-55.6,21-76.8,43C19.1,613.3,3.7,669.1,0,729.3
	c-0.4,6.2,2.7,9.3,8.9,9.8c10.1,0.7,20.3,1.2,30.5,1.2c70,0,139.9,0,209.9,0h150.2v0.5c49.1,0,98.3,0,147.4,0
	c34.5,0,69.1,0,103.6-0.1c44.5-0.1,89-0.7,133.5-1.3c14.6-0.2,16.9-3.2,15.9-17.9c0-0.2,0-0.3,0-0.5c-3.4-33.3-10.2-65.8-24.2-96.5
	c-21-46.3-54-79.7-103.3-95.1c-27.5-8.6-55.3-16.3-82.8-25c-24-7.6-47.8-15.6-71.5-24c-12.8-4.5-20.3-14-21.2-27.6
	c-1.1-15.8-1.6-31.6-2.1-47.4c-0.1-1.6,1-3.5,2-4.9c4.4-6.2,9.2-12.2,13.5-18.6c11-16.1,16.7-34.3,20.4-53.3c1.2-6.1,2.5-12.1,9-15
	c1.1-0.7,2.1-1.6,2.9-2.7c21.8-23.4,28.3-51.9,26.7-82.7c-0.7-12.5-7.4-21.9-18.9-27.5c-2.8-1.4-3.9-3.2-3.5-6.4
	c1.2-9.8,2.6-19.5,3.5-29.3c1.4-15.1,2.9-30.2-0.1-45.3c-11.5-59-59.4-106-118.8-116.7C420.6,1.1,409.4,0,398.2,0z"/>
</svg>
